STARTFONT 2.1
FONT -FontForge-Satisfy-Book-R-Normal--8-80-72-72-P-35-ISO10646-1
SIZE 8 72 72
FONTBOUNDINGBOX 9 12 -2 -4
COMMENT "Generated by fontforge, http://fontforge.sourceforge.net"
COMMENT "Copyright (c) 2011 by Font Diner, Inc. All rights reserved."
STARTPROPERTIES 39
FOUNDRY "FontForge"
FAMILY_NAME "Satisfy"
WEIGHT_NAME "Book"
SLANT "R"
SETWIDTH_NAME "Normal"
ADD_STYLE_NAME ""
PIXEL_SIZE 8
POINT_SIZE 80
RESOLUTION_X 72
RESOLUTION_Y 72
SPACING "P"
AVERAGE_WIDTH 35
CHARSET_REGISTRY "ISO10646"
CHARSET_ENCODING "1"
FONTNAME_REGISTRY ""
CHARSET_COLLECTIONS "ISO10646-1"
FONT_NAME "Satisfy-Regular"
FACE_NAME "Satisfy Regular"
COPYRIGHT "Copyright (c) 2011 by Font Diner, Inc. All rights reserved."
FONT_VERSION "1.001"
FONT_ASCENT 6
FONT_DESCENT 2
UNDERLINE_POSITION -1
UNDERLINE_THICKNESS 1
X_HEIGHT 2
CAP_HEIGHT 5
RAW_ASCENT 799
RAW_DESCENT 200
NORM_SPACE 2
RELATIVE_WEIGHT 40
RELATIVE_SETWIDTH 50
SUPERSCRIPT_X 0
SUPERSCRIPT_Y 3
SUPERSCRIPT_SIZE 5
SUBSCRIPT_X 0
SUBSCRIPT_Y 1
SUBSCRIPT_SIZE 5
AVG_LOWERCASE_WIDTH 32
AVG_UPPERCASE_WIDTH 45
ENDPROPERTIES
CHARS 227
STARTCHAR space
ENCODING 32
SWIDTH 280 0
DWIDTH 2 0
BBX 1 1 0 0
BITMAP
00
ENDCHAR
STARTCHAR exclam
ENCODING 33
SWIDTH 249 0
DWIDTH 2 0
BBX 2 6 0 0
BITMAP
40
40
40
80
80
80
ENDCHAR
STARTCHAR quotedbl
ENCODING 34
SWIDTH 249 0
DWIDTH 2 0
BBX 3 2 0 4
BITMAP
60
C0
ENDCHAR
STARTCHAR numbersign
ENCODING 35
SWIDTH 417 0
DWIDTH 3 0
BBX 4 4 0 1
BITMAP
60
F0
E0
C0
ENDCHAR
STARTCHAR dollar
ENCODING 36
SWIDTH 292 0
DWIDTH 2 0
BBX 3 6 0 0
BITMAP
40
A0
C0
40
C0
80
ENDCHAR
STARTCHAR percent
ENCODING 37
SWIDTH 574 0
DWIDTH 5 0
BBX 5 6 0 0
BITMAP
48
B0
E0
50
70
B0
ENDCHAR
STARTCHAR ampersand
ENCODING 38
SWIDTH 460 0
DWIDTH 4 0
BBX 3 6 0 0
BITMAP
20
60
40
C0
E0
E0
ENDCHAR
STARTCHAR quotesingle
ENCODING 39
SWIDTH 113 0
DWIDTH 1 0
BBX 2 2 0 4
BITMAP
40
80
ENDCHAR
STARTCHAR parenleft
ENCODING 40
SWIDTH 234 0
DWIDTH 2 0
BBX 3 8 0 -1
BITMAP
20
40
40
80
80
80
80
80
ENDCHAR
STARTCHAR parenright
ENCODING 41
SWIDTH 204 0
DWIDTH 2 0
BBX 3 8 -1 -1
BITMAP
40
20
20
20
40
40
40
80
ENDCHAR
STARTCHAR asterisk
ENCODING 42
SWIDTH 327 0
DWIDTH 3 0
BBX 3 3 0 3
BITMAP
40
E0
A0
ENDCHAR
STARTCHAR plus
ENCODING 43
SWIDTH 350 0
DWIDTH 3 0
BBX 3 2 0 2
BITMAP
40
E0
ENDCHAR
STARTCHAR comma
ENCODING 44
SWIDTH 200 0
DWIDTH 2 0
BBX 1 2 0 -1
BITMAP
80
80
ENDCHAR
STARTCHAR hyphen
ENCODING 45
SWIDTH 353 0
DWIDTH 3 0
BBX 3 1 0 2
BITMAP
E0
ENDCHAR
STARTCHAR period
ENCODING 46
SWIDTH 213 0
DWIDTH 2 0
BBX 1 1 0 0
BITMAP
80
ENDCHAR
STARTCHAR slash
ENCODING 47
SWIDTH 262 0
DWIDTH 2 0
BBX 4 6 -1 0
BITMAP
10
20
20
40
40
80
ENDCHAR
STARTCHAR zero
ENCODING 48
SWIDTH 489 0
DWIDTH 4 0
BBX 4 6 0 0
BITMAP
20
50
90
90
A0
E0
ENDCHAR
STARTCHAR one
ENCODING 49
SWIDTH 272 0
DWIDTH 2 0
BBX 2 6 0 0
BITMAP
40
40
40
40
80
80
ENDCHAR
STARTCHAR two
ENCODING 50
SWIDTH 448 0
DWIDTH 4 0
BBX 3 6 0 0
BITMAP
60
60
20
40
80
E0
ENDCHAR
STARTCHAR three
ENCODING 51
SWIDTH 462 0
DWIDTH 4 0
BBX 4 6 0 0
BITMAP
60
D0
20
60
20
E0
ENDCHAR
STARTCHAR four
ENCODING 52
SWIDTH 452 0
DWIDTH 4 0
BBX 3 6 0 0
BITMAP
20
60
A0
E0
20
20
ENDCHAR
STARTCHAR five
ENCODING 53
SWIDTH 444 0
DWIDTH 4 0
BBX 4 6 0 0
BITMAP
70
40
E0
A0
A0
C0
ENDCHAR
STARTCHAR six
ENCODING 54
SWIDTH 477 0
DWIDTH 4 0
BBX 3 6 0 0
BITMAP
20
60
A0
E0
A0
E0
ENDCHAR
STARTCHAR seven
ENCODING 55
SWIDTH 406 0
DWIDTH 3 0
BBX 4 6 0 0
BITMAP
70
20
20
40
40
80
ENDCHAR
STARTCHAR eight
ENCODING 56
SWIDTH 444 0
DWIDTH 4 0
BBX 4 6 0 0
BITMAP
70
50
60
A0
A0
E0
ENDCHAR
STARTCHAR nine
ENCODING 57
SWIDTH 462 0
DWIDTH 4 0
BBX 3 6 0 0
BITMAP
60
60
A0
E0
20
C0
ENDCHAR
STARTCHAR colon
ENCODING 58
SWIDTH 226 0
DWIDTH 2 0
BBX 1 2 0 0
BITMAP
80
80
ENDCHAR
STARTCHAR semicolon
ENCODING 59
SWIDTH 212 0
DWIDTH 2 0
BBX 1 3 0 -1
BITMAP
80
80
80
ENDCHAR
STARTCHAR less
ENCODING 60
SWIDTH 271 0
DWIDTH 2 0
BBX 2 3 0 1
BITMAP
40
80
C0
ENDCHAR
STARTCHAR equal
ENCODING 61
SWIDTH 374 0
DWIDTH 3 0
BBX 3 2 0 2
BITMAP
60
E0
ENDCHAR
STARTCHAR greater
ENCODING 62
SWIDTH 250 0
DWIDTH 2 0
BBX 3 3 -1 1
BITMAP
60
20
C0
ENDCHAR
STARTCHAR question
ENCODING 63
SWIDTH 413 0
DWIDTH 3 0
BBX 4 6 0 0
BITMAP
60
90
20
40
80
80
ENDCHAR
STARTCHAR at
ENCODING 64
SWIDTH 648 0
DWIDTH 5 0
BBX 5 5 0 0
BITMAP
78
B8
D8
E8
D0
ENDCHAR
STARTCHAR A
ENCODING 65
SWIDTH 552 0
DWIDTH 4 0
BBX 5 8 -1 -2
BITMAP
18
28
28
28
F8
50
50
98
ENDCHAR
STARTCHAR B
ENCODING 66
SWIDTH 607 0
DWIDTH 5 0
BBX 5 7 0 -1
BITMAP
70
48
50
60
90
90
F0
ENDCHAR
STARTCHAR C
ENCODING 67
SWIDTH 548 0
DWIDTH 4 0
BBX 4 7 0 -1
BITMAP
30
50
50
80
80
90
E0
ENDCHAR
STARTCHAR D
ENCODING 68
SWIDTH 632 0
DWIDTH 5 0
BBX 5 7 0 -1
BITMAP
70
48
48
48
48
90
E0
ENDCHAR
STARTCHAR E
ENCODING 69
SWIDTH 523 0
DWIDTH 4 0
BBX 4 7 0 -1
BITMAP
30
50
50
60
80
90
E0
ENDCHAR
STARTCHAR F
ENCODING 70
SWIDTH 585 0
DWIDTH 5 0
BBX 5 7 0 -1
BITMAP
70
C8
10
70
20
20
20
ENDCHAR
STARTCHAR G
ENCODING 71
SWIDTH 612 0
DWIDTH 5 0
BBX 5 8 0 -2
BITMAP
30
48
50
80
B8
90
A0
40
ENDCHAR
STARTCHAR H
ENCODING 72
SWIDTH 649 0
DWIDTH 5 0
BBX 5 7 0 -1
BITMAP
48
48
48
58
B0
90
90
ENDCHAR
STARTCHAR I
ENCODING 73
SWIDTH 537 0
DWIDTH 4 0
BBX 5 7 -1 -1
BITMAP
18
18
28
18
38
D0
F0
ENDCHAR
STARTCHAR J
ENCODING 74
SWIDTH 500 0
DWIDTH 4 0
BBX 6 8 -1 -2
BITMAP
1C
08
08
10
50
90
A0
40
ENDCHAR
STARTCHAR K
ENCODING 75
SWIDTH 497 0
DWIDTH 4 0
BBX 4 8 0 -2
BITMAP
50
50
50
A0
E0
A0
A0
30
ENDCHAR
STARTCHAR L
ENCODING 76
SWIDTH 492 0
DWIDTH 4 0
BBX 5 8 -1 -2
BITMAP
08
18
50
30
20
20
E8
10
ENDCHAR
STARTCHAR M
ENCODING 77
SWIDTH 733 0
DWIDTH 6 0
BBX 7 7 -1 -1
BITMAP
12
16
34
3C
BC
D4
C4
ENDCHAR
STARTCHAR N
ENCODING 78
SWIDTH 541 0
DWIDTH 4 0
BBX 5 7 0 -1
BITMAP
48
58
50
D0
D0
E0
A0
ENDCHAR
STARTCHAR O
ENCODING 79
SWIDTH 567 0
DWIDTH 5 0
BBX 4 8 0 -2
BITMAP
30
50
90
90
90
90
A0
40
ENDCHAR
STARTCHAR P
ENCODING 80
SWIDTH 552 0
DWIDTH 4 0
BBX 5 7 0 -1
BITMAP
70
C8
48
50
60
80
80
ENDCHAR
STARTCHAR Q
ENCODING 81
SWIDTH 583 0
DWIDTH 5 0
BBX 4 7 0 -1
BITMAP
30
50
90
90
90
50
F0
ENDCHAR
STARTCHAR R
ENCODING 82
SWIDTH 560 0
DWIDTH 4 0
BBX 5 8 0 -2
BITMAP
70
C8
48
50
E0
A0
A0
10
ENDCHAR
STARTCHAR S
ENCODING 83
SWIDTH 474 0
DWIDTH 4 0
BBX 4 8 0 -2
BITMAP
70
50
40
40
20
A0
A0
C0
ENDCHAR
STARTCHAR T
ENCODING 84
SWIDTH 423 0
DWIDTH 3 0
BBX 4 7 0 -1
BITMAP
F0
20
40
40
40
40
C0
ENDCHAR
STARTCHAR U
ENCODING 85
SWIDTH 574 0
DWIDTH 5 0
BBX 5 7 0 -1
BITMAP
48
48
50
90
90
90
F0
ENDCHAR
STARTCHAR V
ENCODING 86
SWIDTH 503 0
DWIDTH 4 0
BBX 5 8 0 -2
BITMAP
48
50
90
A0
A0
A0
C0
40
ENDCHAR
STARTCHAR W
ENCODING 87
SWIDTH 817 0
DWIDTH 7 0
BBX 6 8 0 -2
BITMAP
44
54
94
94
A4
A4
D8
50
ENDCHAR
STARTCHAR X
ENCODING 88
SWIDTH 579 0
DWIDTH 5 0
BBX 5 7 0 -1
BITMAP
48
B0
50
20
20
60
B8
ENDCHAR
STARTCHAR Y
ENCODING 89
SWIDTH 532 0
DWIDTH 4 0
BBX 5 7 0 -1
BITMAP
48
50
90
90
A0
60
E0
ENDCHAR
STARTCHAR Z
ENCODING 90
SWIDTH 455 0
DWIDTH 4 0
BBX 5 7 -1 -1
BITMAP
38
08
10
20
20
40
E0
ENDCHAR
STARTCHAR bracketleft
ENCODING 91
SWIDTH 202 0
DWIDTH 2 0
BBX 2 8 0 -1
BITMAP
40
40
40
80
80
80
80
80
ENDCHAR
STARTCHAR backslash
ENCODING 92
SWIDTH 273 0
DWIDTH 2 0
BBX 2 6 0 0
BITMAP
80
80
80
40
40
40
ENDCHAR
STARTCHAR bracketright
ENCODING 93
SWIDTH 216 0
DWIDTH 2 0
BBX 3 8 -1 -1
BITMAP
20
20
20
20
40
40
40
80
ENDCHAR
STARTCHAR asciicircum
ENCODING 94
SWIDTH 287 0
DWIDTH 2 0
BBX 3 3 0 3
BITMAP
40
A0
A0
ENDCHAR
STARTCHAR underscore
ENCODING 95
SWIDTH 439 0
DWIDTH 4 0
BBX 4 1 -1 0
BITMAP
F0
ENDCHAR
STARTCHAR grave
ENCODING 96
SWIDTH 567 0
DWIDTH 5 0
BBX 2 1 2 4
BITMAP
C0
ENDCHAR
STARTCHAR a
ENCODING 97
SWIDTH 435 0
DWIDTH 3 0
BBX 4 3 0 0
BITMAP
E0
B0
E0
ENDCHAR
STARTCHAR b
ENCODING 98
SWIDTH 415 0
DWIDTH 3 0
BBX 4 6 0 0
BITMAP
40
40
40
B0
A0
C0
ENDCHAR
STARTCHAR c
ENCODING 99
SWIDTH 363 0
DWIDTH 3 0
BBX 4 3 0 0
BITMAP
C0
90
E0
ENDCHAR
STARTCHAR d
ENCODING 100
SWIDTH 483 0
DWIDTH 4 0
BBX 5 6 0 0
BITMAP
10
10
20
E0
A8
F0
ENDCHAR
STARTCHAR e
ENCODING 101
SWIDTH 372 0
DWIDTH 3 0
BBX 4 3 0 0
BITMAP
C0
90
E0
ENDCHAR
STARTCHAR f
ENCODING 102
SWIDTH 325 0
DWIDTH 3 0
BBX 4 10 -1 -4
BITMAP
20
20
20
50
60
40
60
A0
A0
C0
ENDCHAR
STARTCHAR g
ENCODING 103
SWIDTH 459 0
DWIDTH 4 0
BBX 4 7 0 -4
BITMAP
E0
B0
E0
40
C0
C0
80
ENDCHAR
STARTCHAR h
ENCODING 104
SWIDTH 465 0
DWIDTH 4 0
BBX 4 5 0 0
BITMAP
40
40
E0
B0
A0
ENDCHAR
STARTCHAR i
ENCODING 105
SWIDTH 274 0
DWIDTH 2 0
BBX 3 5 0 0
BITMAP
40
00
80
A0
C0
ENDCHAR
STARTCHAR j
ENCODING 106
SWIDTH 267 0
DWIDTH 2 0
BBX 5 9 -2 -4
BITMAP
10
00
20
28
30
20
C0
C0
40
ENDCHAR
STARTCHAR k
ENCODING 107
SWIDTH 440 0
DWIDTH 4 0
BBX 4 6 0 0
BITMAP
40
40
80
E0
D0
E0
ENDCHAR
STARTCHAR l
ENCODING 108
SWIDTH 218 0
DWIDTH 2 0
BBX 2 5 0 0
BITMAP
40
40
80
80
80
ENDCHAR
STARTCHAR m
ENCODING 109
SWIDTH 717 0
DWIDTH 6 0
BBX 6 3 0 0
BITMAP
78
AC
BC
ENDCHAR
STARTCHAR n
ENCODING 110
SWIDTH 461 0
DWIDTH 4 0
BBX 4 3 0 0
BITMAP
E0
B0
A0
ENDCHAR
STARTCHAR o
ENCODING 111
SWIDTH 393 0
DWIDTH 3 0
BBX 4 3 0 0
BITMAP
F0
E0
C0
ENDCHAR
STARTCHAR p
ENCODING 112
SWIDTH 451 0
DWIDTH 4 0
BBX 5 6 -1 -3
BITMAP
70
58
70
40
80
80
ENDCHAR
STARTCHAR q
ENCODING 113
SWIDTH 462 0
DWIDTH 4 0
BBX 4 7 0 -4
BITMAP
E0
A0
F0
20
40
40
40
ENDCHAR
STARTCHAR r
ENCODING 114
SWIDTH 406 0
DWIDTH 3 0
BBX 5 4 -1 0
BITMAP
20
60
68
B0
ENDCHAR
STARTCHAR s
ENCODING 115
SWIDTH 351 0
DWIDTH 3 0
BBX 2 4 0 0
BITMAP
40
40
C0
C0
ENDCHAR
STARTCHAR t
ENCODING 116
SWIDTH 301 0
DWIDTH 2 0
BBX 4 6 -1 0
BITMAP
20
F0
20
40
50
60
ENDCHAR
STARTCHAR u
ENCODING 117
SWIDTH 468 0
DWIDTH 4 0
BBX 4 3 0 0
BITMAP
A0
B0
F0
ENDCHAR
STARTCHAR v
ENCODING 118
SWIDTH 427 0
DWIDTH 3 0
BBX 4 3 0 0
BITMAP
A0
B0
C0
ENDCHAR
STARTCHAR w
ENCODING 119
SWIDTH 646 0
DWIDTH 5 0
BBX 6 3 0 0
BITMAP
B0
AC
F0
ENDCHAR
STARTCHAR x
ENCODING 120
SWIDTH 399 0
DWIDTH 3 0
BBX 4 3 0 0
BITMAP
A0
50
E0
ENDCHAR
STARTCHAR y
ENCODING 121
SWIDTH 406 0
DWIDTH 3 0
BBX 3 6 0 -3
BITMAP
A0
A0
C0
40
40
40
ENDCHAR
STARTCHAR z
ENCODING 122
SWIDTH 448 0
DWIDTH 4 0
BBX 4 6 0 -3
BITMAP
60
30
60
60
C0
C0
ENDCHAR
STARTCHAR braceleft
ENCODING 123
SWIDTH 243 0
DWIDTH 2 0
BBX 3 8 0 -1
BITMAP
20
40
40
40
80
80
80
80
ENDCHAR
STARTCHAR bar
ENCODING 124
SWIDTH 253 0
DWIDTH 2 0
BBX 2 6 0 0
BITMAP
40
40
40
80
80
80
ENDCHAR
STARTCHAR braceright
ENCODING 125
SWIDTH 243 0
DWIDTH 2 0
BBX 3 8 -1 -1
BITMAP
20
20
20
20
20
40
40
80
ENDCHAR
STARTCHAR asciitilde
ENCODING 126
SWIDTH 329 0
DWIDTH 3 0
BBX 3 1 0 2
BITMAP
E0
ENDCHAR
STARTCHAR uni00A0
ENCODING 160
SWIDTH 280 0
DWIDTH 2 0
BBX 1 1 0 0
BITMAP
00
ENDCHAR
STARTCHAR exclamdown
ENCODING 161
SWIDTH 249 0
DWIDTH 2 0
BBX 2 6 0 0
BITMAP
40
40
40
80
80
80
ENDCHAR
STARTCHAR cent
ENCODING 162
SWIDTH 322 0
DWIDTH 3 0
BBX 3 6 0 0
BITMAP
20
60
A0
80
C0
80
ENDCHAR
STARTCHAR sterling
ENCODING 163
SWIDTH 318 0
DWIDTH 3 0
BBX 3 5 0 0
BITMAP
60
80
C0
80
C0
ENDCHAR
STARTCHAR currency
ENCODING 164
SWIDTH 347 0
DWIDTH 3 0
BBX 3 2 0 2
BITMAP
E0
C0
ENDCHAR
STARTCHAR yen
ENCODING 165
SWIDTH 326 0
DWIDTH 3 0
BBX 3 5 0 0
BITMAP
A0
40
40
C0
80
ENDCHAR
STARTCHAR brokenbar
ENCODING 166
SWIDTH 253 0
DWIDTH 2 0
BBX 2 6 0 0
BITMAP
40
40
40
80
80
80
ENDCHAR
STARTCHAR section
ENCODING 167
SWIDTH 297 0
DWIDTH 2 0
BBX 3 6 0 0
BITMAP
60
80
40
C0
40
C0
ENDCHAR
STARTCHAR dieresis
ENCODING 168
SWIDTH 567 0
DWIDTH 5 0
BBX 2 1 2 4
BITMAP
C0
ENDCHAR
STARTCHAR copyright
ENCODING 169
SWIDTH 456 0
DWIDTH 4 0
BBX 4 4 0 2
BITMAP
60
F0
D0
F0
ENDCHAR
STARTCHAR ordfeminine
ENCODING 170
SWIDTH 373 0
DWIDTH 3 0
BBX 3 4 0 0
BITMAP
40
C0
E0
C0
ENDCHAR
STARTCHAR guillemotleft
ENCODING 171
SWIDTH 346 0
DWIDTH 3 0
BBX 3 3 0 0
BITMAP
E0
C0
C0
ENDCHAR
STARTCHAR logicalnot
ENCODING 172
SWIDTH 512 0
DWIDTH 4 0
BBX 4 2 0 1
BITMAP
F0
10
ENDCHAR
STARTCHAR sfthyphen
ENCODING 173
SWIDTH 353 0
DWIDTH 3 0
BBX 3 1 0 2
BITMAP
E0
ENDCHAR
STARTCHAR registered
ENCODING 174
SWIDTH 456 0
DWIDTH 4 0
BBX 4 4 0 2
BITMAP
60
F0
D0
F0
ENDCHAR
STARTCHAR macron
ENCODING 175
SWIDTH 567 0
DWIDTH 5 0
BBX 2 1 2 4
BITMAP
C0
ENDCHAR
STARTCHAR degree
ENCODING 176
SWIDTH 144 0
DWIDTH 1 0
BBX 2 1 0 4
BITMAP
C0
ENDCHAR
STARTCHAR twosuperior
ENCODING 178
SWIDTH 268 0
DWIDTH 2 0
BBX 2 4 0 2
BITMAP
40
40
40
C0
ENDCHAR
STARTCHAR threesuperior
ENCODING 179
SWIDTH 262 0
DWIDTH 2 0
BBX 2 4 0 2
BITMAP
40
40
40
C0
ENDCHAR
STARTCHAR acute
ENCODING 180
SWIDTH 567 0
DWIDTH 5 0
BBX 1 1 2 4
BITMAP
80
ENDCHAR
STARTCHAR mu
ENCODING 181
SWIDTH 453 0
DWIDTH 4 0
BBX 5 5 -1 -2
BITMAP
50
68
70
80
80
ENDCHAR
STARTCHAR paragraph
ENCODING 182
SWIDTH 411 0
DWIDTH 3 0
BBX 4 6 0 0
BITMAP
30
D0
E0
60
60
40
ENDCHAR
STARTCHAR periodcentered
ENCODING 183
SWIDTH 168 0
DWIDTH 1 0
BBX 1 1 0 2
BITMAP
80
ENDCHAR
STARTCHAR cedilla
ENCODING 184
SWIDTH 567 0
DWIDTH 5 0
BBX 2 2 2 -1
BITMAP
80
C0
ENDCHAR
STARTCHAR onesuperior
ENCODING 185
SWIDTH 150 0
DWIDTH 1 0
BBX 2 4 0 2
BITMAP
40
80
80
80
ENDCHAR
STARTCHAR ordmasculine
ENCODING 186
SWIDTH 319 0
DWIDTH 3 0
BBX 3 4 0 0
BITMAP
40
A0
C0
C0
ENDCHAR
STARTCHAR guillemotright
ENCODING 187
SWIDTH 346 0
DWIDTH 3 0
BBX 3 3 -1 0
BITMAP
60
60
E0
ENDCHAR
STARTCHAR onequarter
ENCODING 188
SWIDTH 579 0
DWIDTH 5 0
BBX 4 6 0 0
BITMAP
50
50
B0
D0
70
90
ENDCHAR
STARTCHAR onehalf
ENCODING 189
SWIDTH 603 0
DWIDTH 5 0
BBX 5 6 0 0
BITMAP
50
50
B0
D8
50
B0
ENDCHAR
STARTCHAR threequarters
ENCODING 190
SWIDTH 669 0
DWIDTH 5 0
BBX 5 6 0 0
BITMAP
48
50
58
E8
58
C8
ENDCHAR
STARTCHAR questiondown
ENCODING 191
SWIDTH 413 0
DWIDTH 3 0
BBX 3 6 0 0
BITMAP
20
20
20
C0
80
E0
ENDCHAR
STARTCHAR Agrave
ENCODING 192
SWIDTH 552 0
DWIDTH 4 0
BBX 5 9 -1 -2
BITMAP
08
18
28
28
28
F8
50
50
98
ENDCHAR
STARTCHAR Aacute
ENCODING 193
SWIDTH 552 0
DWIDTH 4 0
BBX 5 9 -1 -2
BITMAP
18
18
28
28
28
F8
50
50
98
ENDCHAR
STARTCHAR Acircumflex
ENCODING 194
SWIDTH 552 0
DWIDTH 4 0
BBX 6 10 -1 -2
BITMAP
08
14
18
28
28
28
F8
50
50
98
ENDCHAR
STARTCHAR Atilde
ENCODING 195
SWIDTH 552 0
DWIDTH 4 0
BBX 6 9 -1 -2
BITMAP
1C
18
28
28
28
F8
50
50
98
ENDCHAR
STARTCHAR Adieresis
ENCODING 196
SWIDTH 552 0
DWIDTH 4 0
BBX 6 9 -1 -2
BITMAP
04
18
28
28
28
F8
50
50
98
ENDCHAR
STARTCHAR Aring
ENCODING 197
SWIDTH 552 0
DWIDTH 4 0
BBX 5 9 -1 -2
BITMAP
08
18
28
28
28
F8
50
50
98
ENDCHAR
STARTCHAR AE
ENCODING 198
SWIDTH 869 0
DWIDTH 7 0
BBX 8 8 -1 -2
BITMAP
1F
29
29
2E
F8
51
5A
9C
ENDCHAR
STARTCHAR Ccedilla
ENCODING 199
SWIDTH 548 0
DWIDTH 4 0
BBX 4 9 0 -3
BITMAP
30
50
50
80
80
90
A0
40
60
ENDCHAR
STARTCHAR Egrave
ENCODING 200
SWIDTH 523 0
DWIDTH 4 0
BBX 4 8 0 -1
BITMAP
30
30
50
50
60
80
90
E0
ENDCHAR
STARTCHAR Eacute
ENCODING 201
SWIDTH 523 0
DWIDTH 4 0
BBX 4 8 0 -1
BITMAP
30
30
50
50
60
80
90
E0
ENDCHAR
STARTCHAR Ecircumflex
ENCODING 202
SWIDTH 523 0
DWIDTH 4 0
BBX 4 9 0 -1
BITMAP
10
20
30
50
50
60
80
90
E0
ENDCHAR
STARTCHAR Edieresis
ENCODING 203
SWIDTH 523 0
DWIDTH 4 0
BBX 4 8 0 -1
BITMAP
20
30
50
50
60
80
90
E0
ENDCHAR
STARTCHAR Igrave
ENCODING 204
SWIDTH 537 0
DWIDTH 4 0
BBX 5 8 -1 -1
BITMAP
08
18
18
28
18
38
D0
F0
ENDCHAR
STARTCHAR Iacute
ENCODING 205
SWIDTH 537 0
DWIDTH 4 0
BBX 5 8 -1 -1
BITMAP
08
18
18
28
18
38
D0
F0
ENDCHAR
STARTCHAR Icircumflex
ENCODING 206
SWIDTH 537 0
DWIDTH 4 0
BBX 6 9 -1 -1
BITMAP
08
04
18
18
28
18
38
D0
F0
ENDCHAR
STARTCHAR Idieresis
ENCODING 207
SWIDTH 537 0
DWIDTH 4 0
BBX 6 8 -1 -1
BITMAP
04
18
18
28
18
38
D0
F0
ENDCHAR
STARTCHAR Eth
ENCODING 208
SWIDTH 632 0
DWIDTH 5 0
BBX 5 7 0 -1
BITMAP
70
48
48
E8
48
90
E0
ENDCHAR
STARTCHAR Ntilde
ENCODING 209
SWIDTH 541 0
DWIDTH 4 0
BBX 5 8 0 -1
BITMAP
30
48
58
50
D0
D0
E0
A0
ENDCHAR
STARTCHAR Ograve
ENCODING 210
SWIDTH 567 0
DWIDTH 5 0
BBX 4 9 0 -2
BITMAP
30
30
50
90
90
90
90
A0
40
ENDCHAR
STARTCHAR Oacute
ENCODING 211
SWIDTH 567 0
DWIDTH 5 0
BBX 4 10 0 -2
BITMAP
10
20
30
50
90
90
90
90
A0
40
ENDCHAR
STARTCHAR Ocircumflex
ENCODING 212
SWIDTH 567 0
DWIDTH 5 0
BBX 4 10 0 -2
BITMAP
10
20
30
50
90
90
90
90
A0
40
ENDCHAR
STARTCHAR Otilde
ENCODING 213
SWIDTH 567 0
DWIDTH 5 0
BBX 4 9 0 -2
BITMAP
30
30
50
90
90
90
90
A0
40
ENDCHAR
STARTCHAR Odieresis
ENCODING 214
SWIDTH 567 0
DWIDTH 5 0
BBX 4 9 0 -2
BITMAP
30
30
50
90
90
90
90
A0
40
ENDCHAR
STARTCHAR multiply
ENCODING 215
SWIDTH 281 0
DWIDTH 2 0
BBX 3 3 0 1
BITMAP
E0
80
C0
ENDCHAR
STARTCHAR Oslash
ENCODING 216
SWIDTH 597 0
DWIDTH 5 0
BBX 5 8 0 -2
BITMAP
38
50
70
B0
D0
D0
A0
C0
ENDCHAR
STARTCHAR Ugrave
ENCODING 217
SWIDTH 574 0
DWIDTH 5 0
BBX 5 8 0 -1
BITMAP
30
48
48
50
90
90
90
F0
ENDCHAR
STARTCHAR Uacute
ENCODING 218
SWIDTH 574 0
DWIDTH 5 0
BBX 5 8 0 -1
BITMAP
10
48
48
50
90
90
90
F0
ENDCHAR
STARTCHAR Ucircumflex
ENCODING 219
SWIDTH 574 0
DWIDTH 5 0
BBX 5 9 0 -1
BITMAP
10
20
48
48
50
90
90
90
F0
ENDCHAR
STARTCHAR Udieresis
ENCODING 220
SWIDTH 574 0
DWIDTH 5 0
BBX 5 8 0 -1
BITMAP
30
48
48
50
90
90
90
F0
ENDCHAR
STARTCHAR Yacute
ENCODING 221
SWIDTH 532 0
DWIDTH 4 0
BBX 5 9 0 -1
BITMAP
10
20
48
50
90
90
A0
60
E0
ENDCHAR
STARTCHAR Thorn
ENCODING 222
SWIDTH 569 0
DWIDTH 5 0
BBX 4 7 0 -1
BITMAP
40
60
D0
90
90
E0
80
ENDCHAR
STARTCHAR germandbls
ENCODING 223
SWIDTH 495 0
DWIDTH 4 0
BBX 5 9 -1 -4
BITMAP
30
30
50
D0
68
B0
A0
C0
80
ENDCHAR
STARTCHAR agrave
ENCODING 224
SWIDTH 435 0
DWIDTH 3 0
BBX 4 4 0 0
BITMAP
60
E0
B0
E0
ENDCHAR
STARTCHAR aacute
ENCODING 225
SWIDTH 435 0
DWIDTH 3 0
BBX 4 5 0 0
BITMAP
20
40
A0
B0
E0
ENDCHAR
STARTCHAR acircumflex
ENCODING 226
SWIDTH 435 0
DWIDTH 3 0
BBX 4 5 0 0
BITMAP
20
40
E0
B0
E0
ENDCHAR
STARTCHAR atilde
ENCODING 227
SWIDTH 435 0
DWIDTH 3 0
BBX 4 4 0 0
BITMAP
60
E0
B0
E0
ENDCHAR
STARTCHAR adieresis
ENCODING 228
SWIDTH 435 0
DWIDTH 3 0
BBX 4 4 0 0
BITMAP
60
E0
B0
E0
ENDCHAR
STARTCHAR aring
ENCODING 229
SWIDTH 435 0
DWIDTH 3 0
BBX 4 4 0 0
BITMAP
40
A0
B0
E0
ENDCHAR
STARTCHAR ae
ENCODING 230
SWIDTH 594 0
DWIDTH 5 0
BBX 5 3 0 0
BITMAP
F0
A8
F0
ENDCHAR
STARTCHAR ccedilla
ENCODING 231
SWIDTH 363 0
DWIDTH 3 0
BBX 4 5 0 -2
BITMAP
C0
90
E0
80
C0
ENDCHAR
STARTCHAR egrave
ENCODING 232
SWIDTH 372 0
DWIDTH 3 0
BBX 4 4 0 0
BITMAP
60
C0
90
E0
ENDCHAR
STARTCHAR eacute
ENCODING 233
SWIDTH 372 0
DWIDTH 3 0
BBX 4 4 0 0
BITMAP
40
C0
90
E0
ENDCHAR
STARTCHAR ecircumflex
ENCODING 234
SWIDTH 372 0
DWIDTH 3 0
BBX 4 5 0 0
BITMAP
40
20
C0
90
E0
ENDCHAR
STARTCHAR edieresis
ENCODING 235
SWIDTH 372 0
DWIDTH 3 0
BBX 4 4 0 0
BITMAP
60
C0
90
E0
ENDCHAR
STARTCHAR igrave
ENCODING 236
SWIDTH 274 0
DWIDTH 2 0
BBX 3 4 0 0
BITMAP
C0
80
A0
C0
ENDCHAR
STARTCHAR iacute
ENCODING 237
SWIDTH 274 0
DWIDTH 2 0
BBX 3 4 0 0
BITMAP
40
80
A0
C0
ENDCHAR
STARTCHAR icircumflex
ENCODING 238
SWIDTH 274 0
DWIDTH 2 0
BBX 3 5 0 0
BITMAP
40
80
80
A0
C0
ENDCHAR
STARTCHAR idieresis
ENCODING 239
SWIDTH 274 0
DWIDTH 2 0
BBX 3 4 0 0
BITMAP
C0
80
A0
C0
ENDCHAR
STARTCHAR eth
ENCODING 240
SWIDTH 393 0
DWIDTH 3 0
BBX 4 5 0 0
BITMAP
20
E0
F0
E0
C0
ENDCHAR
STARTCHAR ntilde
ENCODING 241
SWIDTH 461 0
DWIDTH 4 0
BBX 4 4 0 0
BITMAP
60
E0
B0
A0
ENDCHAR
STARTCHAR ograve
ENCODING 242
SWIDTH 393 0
DWIDTH 3 0
BBX 4 4 0 0
BITMAP
60
F0
E0
C0
ENDCHAR
STARTCHAR oacute
ENCODING 243
SWIDTH 393 0
DWIDTH 3 0
BBX 4 4 0 0
BITMAP
40
B0
E0
C0
ENDCHAR
STARTCHAR ocircumflex
ENCODING 244
SWIDTH 393 0
DWIDTH 3 0
BBX 4 5 0 0
BITMAP
40
A0
F0
E0
C0
ENDCHAR
STARTCHAR otilde
ENCODING 245
SWIDTH 393 0
DWIDTH 3 0
BBX 4 4 0 0
BITMAP
E0
F0
E0
C0
ENDCHAR
STARTCHAR odieresis
ENCODING 246
SWIDTH 393 0
DWIDTH 3 0
BBX 4 4 0 0
BITMAP
60
F0
E0
C0
ENDCHAR
STARTCHAR divide
ENCODING 247
SWIDTH 350 0
DWIDTH 3 0
BBX 3 2 0 2
BITMAP
40
E0
ENDCHAR
STARTCHAR oslash
ENCODING 248
SWIDTH 406 0
DWIDTH 3 0
BBX 4 5 0 -1
BITMAP
20
F0
E0
C0
80
ENDCHAR
STARTCHAR ugrave
ENCODING 249
SWIDTH 468 0
DWIDTH 4 0
BBX 4 4 0 0
BITMAP
60
A0
B0
F0
ENDCHAR
STARTCHAR uacute
ENCODING 250
SWIDTH 468 0
DWIDTH 4 0
BBX 4 5 0 0
BITMAP
20
40
A0
B0
F0
ENDCHAR
STARTCHAR ucircumflex
ENCODING 251
SWIDTH 468 0
DWIDTH 4 0
BBX 4 5 0 0
BITMAP
20
40
A0
B0
F0
ENDCHAR
STARTCHAR udieresis
ENCODING 252
SWIDTH 468 0
DWIDTH 4 0
BBX 4 4 0 0
BITMAP
60
A0
B0
F0
ENDCHAR
STARTCHAR yacute
ENCODING 253
SWIDTH 406 0
DWIDTH 3 0
BBX 3 8 0 -3
BITMAP
20
40
A0
A0
C0
40
40
40
ENDCHAR
STARTCHAR thorn
ENCODING 254
SWIDTH 451 0
DWIDTH 4 0
BBX 5 8 -1 -3
BITMAP
20
20
30
58
70
40
80
80
ENDCHAR
STARTCHAR ydieresis
ENCODING 255
SWIDTH 406 0
DWIDTH 3 0
BBX 3 7 0 -3
BITMAP
60
A0
A0
C0
40
40
40
ENDCHAR
STARTCHAR dotlessi
ENCODING 305
SWIDTH 274 0
DWIDTH 2 0
BBX 3 3 0 0
BITMAP
80
A0
C0
ENDCHAR
STARTCHAR Lslash
ENCODING 321
SWIDTH 492 0
DWIDTH 4 0
BBX 5 8 -1 -2
BITMAP
08
18
50
30
70
20
E8
10
ENDCHAR
STARTCHAR lslash
ENCODING 322
SWIDTH 218 0
DWIDTH 2 0
BBX 3 5 -1 0
BITMAP
20
20
C0
40
40
ENDCHAR
STARTCHAR OE
ENCODING 338
SWIDTH 918 0
DWIDTH 7 0
BBX 7 8 0 -2
BITMAP
36
5A
9A
9C
90
92
B6
48
ENDCHAR
STARTCHAR oe
ENCODING 339
SWIDTH 583 0
DWIDTH 5 0
BBX 5 3 0 0
BITMAP
F0
E8
F8
ENDCHAR
STARTCHAR Scaron
ENCODING 352
SWIDTH 474 0
DWIDTH 4 0
BBX 5 9 0 -2
BITMAP
38
70
50
40
40
20
A0
A0
C0
ENDCHAR
STARTCHAR scaron
ENCODING 353
SWIDTH 351 0
DWIDTH 3 0
BBX 3 5 0 0
BITMAP
60
40
40
C0
C0
ENDCHAR
STARTCHAR Ydieresis
ENCODING 376
SWIDTH 532 0
DWIDTH 4 0
BBX 5 8 0 -1
BITMAP
30
48
50
90
90
A0
60
E0
ENDCHAR
STARTCHAR Zcaron
ENCODING 381
SWIDTH 455 0
DWIDTH 4 0
BBX 5 8 -1 -1
BITMAP
18
38
08
10
20
20
40
E0
ENDCHAR
STARTCHAR zcaron
ENCODING 382
SWIDTH 349 0
DWIDTH 3 0
BBX 4 7 -1 -3
BITMAP
30
60
30
50
60
A0
C0
ENDCHAR
STARTCHAR circumflex
ENCODING 710
SWIDTH 567 0
DWIDTH 5 0
BBX 2 1 2 5
BITMAP
C0
ENDCHAR
STARTCHAR caron
ENCODING 711
SWIDTH 567 0
DWIDTH 5 0
BBX 2 1 2 5
BITMAP
C0
ENDCHAR
STARTCHAR breve
ENCODING 728
SWIDTH 567 0
DWIDTH 5 0
BBX 2 1 2 4
BITMAP
C0
ENDCHAR
STARTCHAR dotaccent
ENCODING 729
SWIDTH 567 0
DWIDTH 5 0
BBX 1 1 2 4
BITMAP
80
ENDCHAR
STARTCHAR ring
ENCODING 730
SWIDTH 567 0
DWIDTH 5 0
BBX 1 1 2 4
BITMAP
80
ENDCHAR
STARTCHAR ogonek
ENCODING 731
SWIDTH 567 0
DWIDTH 5 0
BBX 2 1 2 -1
BITMAP
C0
ENDCHAR
STARTCHAR tilde
ENCODING 732
SWIDTH 567 0
DWIDTH 5 0
BBX 2 1 2 4
BITMAP
C0
ENDCHAR
STARTCHAR hungarumlaut
ENCODING 733
SWIDTH 567 0
DWIDTH 5 0
BBX 3 1 1 4
BITMAP
E0
ENDCHAR
STARTCHAR endash
ENCODING 8211
SWIDTH 353 0
DWIDTH 3 0
BBX 3 1 0 2
BITMAP
E0
ENDCHAR
STARTCHAR emdash
ENCODING 8212
SWIDTH 508 0
DWIDTH 4 0
BBX 4 1 0 2
BITMAP
F0
ENDCHAR
STARTCHAR quoteleft
ENCODING 8216
SWIDTH 155 0
DWIDTH 1 0
BBX 1 1 0 4
BITMAP
80
ENDCHAR
STARTCHAR quoteright
ENCODING 8217
SWIDTH 154 0
DWIDTH 1 0
BBX 1 1 0 4
BITMAP
80
ENDCHAR
STARTCHAR quotesinglbase
ENCODING 8218
SWIDTH 188 0
DWIDTH 2 0
BBX 1 2 0 -1
BITMAP
80
80
ENDCHAR
STARTCHAR quotedblleft
ENCODING 8220
SWIDTH 289 0
DWIDTH 2 0
BBX 2 1 0 4
BITMAP
C0
ENDCHAR
STARTCHAR quotedblright
ENCODING 8221
SWIDTH 288 0
DWIDTH 2 0
BBX 3 1 0 4
BITMAP
E0
ENDCHAR
STARTCHAR quotedblbase
ENCODING 8222
SWIDTH 323 0
DWIDTH 3 0
BBX 2 2 0 -1
BITMAP
C0
80
ENDCHAR
STARTCHAR bullet
ENCODING 8226
SWIDTH 180 0
DWIDTH 1 0
BBX 1 2 0 1
BITMAP
80
80
ENDCHAR
STARTCHAR ellipsis
ENCODING 8230
SWIDTH 614 0
DWIDTH 5 0
BBX 4 1 0 0
BITMAP
F0
ENDCHAR
STARTCHAR perthousand
ENCODING 8240
SWIDTH 851 0
DWIDTH 7 0
BBX 7 6 0 0
BITMAP
48
B0
E0
54
7A
BC
ENDCHAR
STARTCHAR guilsinglleft
ENCODING 8249
SWIDTH 202 0
DWIDTH 2 0
BBX 2 3 0 0
BITMAP
C0
80
80
ENDCHAR
STARTCHAR guilsinglright
ENCODING 8250
SWIDTH 202 0
DWIDTH 2 0
BBX 2 3 -1 0
BITMAP
40
40
C0
ENDCHAR
STARTCHAR fraction
ENCODING 8260
SWIDTH 600 0
DWIDTH 5 0
BBX 5 6 0 0
BITMAP
08
10
20
20
40
80
ENDCHAR
STARTCHAR Euro
ENCODING 8364
SWIDTH 334 0
DWIDTH 3 0
BBX 3 4 0 1
BITMAP
60
80
C0
E0
ENDCHAR
STARTCHAR minus
ENCODING 8722
SWIDTH 353 0
DWIDTH 3 0
BBX 3 1 0 2
BITMAP
E0
ENDCHAR
STARTCHAR fi
ENCODING 64257
SWIDTH 549 0
DWIDTH 4 0
BBX 6 10 -1 -4
BITMAP
20
28
20
48
74
58
60
A0
A0
C0
ENDCHAR
STARTCHAR fl
ENCODING 64258
SWIDTH 516 0
DWIDTH 4 0
BBX 5 10 -1 -4
BITMAP
20
28
28
48
70
50
60
A0
A0
C0
ENDCHAR
STARTCHAR .notdef
ENCODING -1
SWIDTH 280 0
DWIDTH 2 0
BBX 1 1 0 0
BITMAP
00
ENDCHAR
ENDFONT
